<svg id="svg" version="1.1" xmlns="http://www.w3.org/2000/svg" xmlns:xlink="http://www.w3.org/1999/xlink" width="1000" height="484.4" viewBox="0, 0, 400,161.6"><g id="svgg"><path id="path0" d="M80.833 51.851 C 69.096 53.180,63.015 59.889,63.982 70.443 C 64.771 79.044,69.048 82.248,82.978 84.671 C 91.271 86.113,94.401 88.533,94.412 93.509 C 94.432 102.300,79.577 105.261,68.987 98.575 C 67.120 97.397,65.862 97.482,64.374 98.888 C 61.372 101.723,61.930 103.849,66.273 106.119 C 75.653 111.023,89.376 110.922,96.457 105.897 C 100.673 102.906,102.575 98.922,102.575 93.083 C 102.575 83.577,97.912 79.408,84.500 76.927 C 76.029 75.359,72.674 73.218,72.120 69.026 C 70.986 60.436,82.620 56.457,93.260 61.797 C 96.286 63.315,97.114 63.306,98.609 61.737 C 101.427 58.782,100.867 56.814,96.624 54.759 C 91.678 52.363,85.828 51.286,80.833 51.851 M111.083 52.452 C 110.322 52.636,109.652 53.068,109.336 53.579 C 108.639 54.707,108.616 54.598,114.102 76.833 C 115.063 80.729,116.485 86.542,117.262 89.750 C 118.039 92.958,118.932 96.596,119.246 97.833 C 119.561 99.071,120.010 100.946,120.245 102.000 C 121.642 108.282,122.378 109.106,126.470 108.969 C 130.454 108.836,130.391 108.940,133.581 97.250 C 134.006 95.692,134.644 93.367,135.000 92.083 C 135.355 90.800,136.255 87.537,136.999 84.833 C 139.734 74.904,139.959 74.333,141.147 74.333 C 142.256 74.333,142.805 75.715,144.919 83.833 C 145.527 86.171,146.276 89.021,146.583 90.167 C 147.136 92.236,148.059 95.724,149.678 101.875 C 151.450 108.606,151.718 108.917,155.750 108.917 C 159.492 108.917,160.151 108.240,161.355 103.167 C 161.627 102.021,162.217 99.583,162.667 97.750 C 163.500 94.353,164.840 88.880,166.666 81.417 C 168.277 74.834,169.532 69.722,171.147 63.167 C 173.641 53.047,173.510 52.333,169.167 52.333 C 165.756 52.333,165.186 53.079,163.752 59.417 C 162.800 63.623,161.838 67.849,161.077 71.167 C 160.751 72.587,160.259 74.800,159.984 76.083 C 159.709 77.367,159.342 78.979,159.168 79.667 C 158.994 80.354,158.586 82.154,158.261 83.667 C 155.977 94.287,154.739 94.443,152.153 84.434 C 151.700 82.683,150.955 79.825,150.496 78.083 C 150.038 76.342,149.331 73.642,148.925 72.083 C 148.184 69.236,147.331 65.975,145.589 59.333 C 144.073 53.551,143.354 52.500,140.918 52.500 C 138.392 52.500,137.870 53.309,136.151 59.891 C 134.847 64.886,133.863 68.643,132.085 75.417 C 131.290 78.442,130.238 82.454,129.746 84.333 C 127.012 94.775,125.630 94.198,123.167 81.583 C 123.059 81.033,122.755 79.714,122.490 78.652 C 122.225 77.589,121.786 75.677,121.514 74.402 C 121.242 73.127,120.607 70.283,120.104 68.083 C 119.600 65.883,118.996 63.221,118.761 62.167 C 117.195 55.136,116.952 54.345,116.077 53.444 C 115.186 52.526,112.767 52.046,111.083 52.452 M184.642 56.042 C 183.859 56.845,183.442 57.395,179.066 63.417 C 174.934 69.102,174.542 69.954,175.542 71.065 C 176.527 72.160,177.523 71.667,179.606 69.049 C 181.378 66.823,182.399 66.312,183.154 67.272 C 183.766 68.050,183.802 68.729,183.917 81.583 C 184.108 102.954,184.204 106.999,184.531 107.595 C 185.418 109.215,186.868 108.714,187.223 106.667 C 187.433 105.457,187.382 57.627,187.170 56.833 C 186.730 55.185,185.771 54.885,184.642 56.042 M399.167 161.083 L 398.775 161.500 399.388 161.500 C 399.930 161.500,400.000 161.452,400.000 161.083 C 400.000 160.848,399.904 160.667,399.779 160.667 C 399.658 160.667,399.382 160.854,399.167 161.083 " stroke="none" fill="#fefefc" fill-rule="evenodd"></path><path id="path1" d="M0.000 80.750 L 0.000 161.500 199.388 161.500 L 398.775 161.500 399.167 161.083 C 399.382 160.854,399.658 160.667,399.779 160.667 C 399.962 160.667,400.000 146.935,400.000 80.333 L 400.000 0.000 200.000 0.000 L 0.000 0.000 0.000 80.750 M86.504 51.841 C 92.432 52.572,98.999 55.236,100.094 57.354 C 100.682 58.491,100.119 60.154,98.609 61.737 C 97.114 63.306,96.286 63.315,93.260 61.797 C 82.620 56.457,70.986 60.436,72.120 69.026 C 72.674 73.218,76.029 75.359,84.500 76.927 C 97.912 79.408,102.575 83.577,102.575 93.083 C 102.575 98.922,100.673 102.906,96.457 105.897 C 89.376 110.922,75.653 111.023,66.273 106.119 C 61.930 103.849,61.372 101.723,64.374 98.888 C 65.862 97.482,67.120 97.397,68.987 98.575 C 76.254 103.163,87.402 103.355,92.085 98.973 C 93.845 97.328,94.418 95.981,94.412 93.509 C 94.401 88.533,91.271 86.113,82.978 84.671 C 75.731 83.410,71.915 82.210,69.167 80.326 C 61.793 75.272,62.078 61.609,69.679 55.801 C 73.620 52.790,80.695 51.124,86.504 51.841 M271.382 52.082 C 278.361 53.299,283.911 57.911,286.422 64.580 C 287.537 67.543,286.328 68.825,282.603 68.630 C 280.291 68.509,279.508 67.991,277.880 65.500 C 271.581 55.863,258.521 58.737,256.677 70.167 C 256.570 70.831,256.503 74.924,256.503 80.750 C 256.503 86.576,256.570 90.669,256.677 91.333 C 258.541 102.887,271.652 105.644,278.080 95.833 C 279.710 93.344,280.404 92.942,283.083 92.935 C 287.436 92.922,287.936 95.167,284.721 100.288 C 280.595 106.860,275.359 109.581,266.833 109.583 C 262.244 109.583,261.978 109.535,259.667 108.290 C 252.397 104.370,248.954 98.959,248.318 90.451 C 248.029 86.589,248.208 70.367,248.561 68.375 C 250.581 56.991,260.190 50.130,271.382 52.082 M114.634 52.589 C 116.636 53.184,116.894 53.781,118.761 62.167 C 118.996 63.221,119.600 65.883,120.104 68.083 C 120.607 70.283,121.242 73.127,121.514 74.402 C 121.786 75.677,122.225 77.589,122.490 78.652 C 122.755 79.714,123.059 81.033,123.167 81.583 C 125.630 94.198,127.012 94.775,129.746 84.333 C 130.238 82.454,131.290 78.442,132.085 75.417 C 133.863 68.643,134.847 64.886,136.151 59.891 C 137.870 53.309,138.392 52.500,140.918 52.500 C 143.354 52.500,144.073 53.551,145.589 59.333 C 147.331 65.975,148.184 69.236,148.925 72.083 C 149.331 73.642,150.038 76.342,150.496 78.083 C 150.955 79.825,151.700 82.683,152.153 84.434 C 154.739 94.443,155.977 94.287,158.261 83.667 C 158.586 82.154,158.994 80.354,159.168 79.667 C 159.342 78.979,159.709 77.367,159.984 76.083 C 160.259 74.800,160.751 72.587,161.077 71.167 C 161.838 67.849,162.800 63.623,163.752 59.417 C 165.186 53.079,165.756 52.333,169.167 52.333 C 173.510 52.333,173.641 53.047,171.147 63.167 C 169.532 69.722,168.277 74.834,166.666 81.417 C 164.840 88.880,163.500 94.353,162.667 97.750 C 162.217 99.583,161.627 102.021,161.355 103.167 C 160.151 108.240,159.492 108.917,155.750 108.917 C 151.718 108.917,151.450 108.606,149.678 101.875 C 148.059 95.724,147.136 92.236,146.583 90.167 C 146.276 89.021,145.527 86.171,144.919 83.833 C 142.805 75.715,142.256 74.333,141.147 74.333 C 139.959 74.333,139.734 74.904,136.999 84.833 C 136.255 87.537,135.355 90.800,135.000 92.083 C 134.644 93.367,134.006 95.692,133.581 97.250 C 130.391 108.940,130.454 108.836,126.470 108.969 C 122.378 109.106,121.642 108.282,120.245 102.000 C 120.010 100.946,119.561 99.071,119.246 97.833 C 118.932 96.596,118.039 92.958,117.262 89.750 C 116.485 86.542,115.063 80.729,114.102 76.833 C 108.616 54.598,108.639 54.707,109.336 53.579 C 110.042 52.437,112.546 51.969,114.634 52.589 M241.486 52.833 C 242.825 53.591,243.369 55.646,242.773 57.696 C 242.180 59.734,241.717 59.867,235.084 59.894 C 229.138 59.920,228.772 59.982,227.801 61.136 C 226.998 62.090,227.000 62.041,227.000 84.812 C 227.000 108.465,227.049 107.342,225.980 108.241 C 224.302 109.653,220.471 109.208,219.500 107.488 L 219.083 106.750 219.000 84.583 L 218.917 62.417 218.530 61.631 C 217.747 60.043,216.805 59.841,210.120 59.837 C 204.304 59.832,203.803 59.676,203.224 57.687 C 202.518 55.258,203.391 53.081,205.307 52.494 C 205.551 52.419,213.625 52.371,223.250 52.387 L 240.750 52.417 241.486 52.833 M303.935 52.579 C 304.820 52.842,305.510 53.440,305.863 54.250 C 306.032 54.636,306.101 57.046,306.166 64.833 L 306.250 74.917 306.667 75.667 C 306.974 76.221,307.301 76.526,307.917 76.833 L 308.750 77.250 318.167 77.250 C 328.108 77.250,328.273 77.238,329.243 76.476 C 330.279 75.661,330.242 76.049,330.333 65.000 C 330.415 55.162,330.425 54.898,330.771 54.151 C 331.934 51.635,336.899 51.635,338.063 54.151 L 338.417 54.917 338.469 80.000 C 338.528 107.766,338.557 106.910,337.525 107.994 C 336.100 109.490,332.303 109.364,331.096 107.781 C 330.425 106.902,330.340 105.619,330.336 96.333 C 330.329 83.700,331.617 84.917,318.250 84.917 C 304.868 84.917,306.169 83.623,306.168 96.928 C 306.167 106.902,306.143 107.162,305.141 108.141 C 303.694 109.556,299.767 109.233,298.693 107.611 L 298.250 106.941 298.250 80.840 C 298.250 55.509,298.259 54.718,298.568 54.033 C 299.232 52.561,301.659 51.904,303.935 52.579 M189.856 52.762 C 190.174 52.926,190.497 53.314,190.723 53.803 L 191.083 54.583 191.194 73.167 C 191.316 93.716,191.329 93.962,192.353 94.510 C 193.195 94.961,194.078 94.347,195.809 92.104 C 197.533 89.871,198.460 89.384,199.418 90.209 C 200.497 91.137,200.084 92.589,197.912 95.500 C 197.194 96.462,195.525 98.741,194.205 100.562 C 188.573 108.333,188.100 108.810,186.228 108.616 C 184.022 108.389,184.173 110.152,183.917 81.583 C 183.802 68.729,183.766 68.050,183.154 67.272 C 182.399 66.312,181.378 66.823,179.606 69.049 C 177.523 71.667,176.527 72.160,175.542 71.065 C 174.413 69.810,174.559 69.555,182.943 58.094 C 183.341 57.550,184.074 56.650,184.573 56.094 C 185.071 55.538,185.807 54.671,186.208 54.167 C 187.485 52.560,188.621 52.123,189.856 52.762 " stroke="none" fill="#24336c" fill-rule="evenodd"></path><path id="path2" d="M264.333 52.079 C 255.923 53.503,250.139 59.479,248.561 68.375 C 248.208 70.367,248.029 86.589,248.318 90.451 C 248.954 98.959,252.397 104.370,259.667 108.290 C 261.978 109.535,262.244 109.583,266.833 109.583 C 275.359 109.581,280.595 106.860,284.721 100.288 C 287.936 95.167,287.436 92.922,283.083 92.935 C 280.404 92.942,279.710 93.344,278.080 95.833 C 271.652 105.644,258.541 102.887,256.677 91.333 C 256.570 90.669,256.503 86.576,256.503 80.750 C 256.503 74.924,256.570 70.831,256.677 70.167 C 258.521 58.737,271.581 55.863,277.880 65.500 C 279.508 67.991,280.291 68.509,282.603 68.630 C 286.328 68.825,287.537 67.543,286.422 64.580 C 283.038 55.590,273.956 50.450,264.333 52.079 M205.307 52.494 C 203.391 53.081,202.518 55.258,203.224 57.687 C 203.803 59.676,204.304 59.832,210.120 59.837 C 216.805 59.841,217.747 60.043,218.530 61.631 L 218.917 62.417 219.000 84.583 L 219.083 106.750 219.500 107.488 C 220.471 109.208,224.302 109.653,225.980 108.241 C 227.049 107.342,227.000 108.465,227.000 84.812 C 227.000 62.041,226.998 62.090,227.801 61.136 C 228.772 59.982,229.138 59.920,235.084 59.894 C 241.717 59.867,242.180 59.734,242.773 57.696 C 243.369 55.646,242.825 53.591,241.486 52.833 L 240.750 52.417 223.250 52.387 C 213.625 52.371,205.551 52.419,205.307 52.494 M300.560 52.492 C 299.653 52.708,298.904 53.288,298.568 54.033 C 298.259 54.718,298.250 55.509,298.250 80.840 L 298.250 106.941 298.693 107.611 C 299.767 109.233,303.694 109.556,305.141 108.141 C 306.143 107.162,306.167 106.902,306.168 96.928 C 306.169 83.623,304.868 84.917,318.250 84.917 C 331.617 84.917,330.329 83.700,330.336 96.333 C 330.340 105.619,330.425 106.902,331.096 107.781 C 332.303 109.364,336.100 109.490,337.525 107.994 C 338.557 106.910,338.528 107.766,338.469 80.000 L 338.417 54.917 338.063 54.151 C 336.899 51.635,331.934 51.635,330.771 54.151 C 330.425 54.898,330.415 55.162,330.333 65.000 C 330.242 76.049,330.279 75.661,329.243 76.476 C 328.273 77.238,328.108 77.250,318.167 77.250 L 308.750 77.250 307.917 76.833 C 307.301 76.526,306.974 76.221,306.667 75.667 L 306.250 74.917 306.166 64.833 C 306.075 54.028,306.091 54.217,305.204 53.288 C 304.437 52.483,302.203 52.100,300.560 52.492 M187.487 52.879 C 187.178 53.087,186.563 53.706,186.121 54.254 L 185.316 55.250 185.783 55.305 C 186.452 55.384,186.937 55.910,187.167 56.805 C 187.378 57.629,187.432 105.463,187.223 106.667 C 187.087 107.452,186.747 108.092,186.297 108.407 C 185.546 108.933,187.167 108.731,188.016 108.193 C 189.092 107.510,189.817 106.615,194.250 100.500 C 195.546 98.712,197.194 96.462,197.912 95.500 C 200.084 92.589,200.497 91.137,199.418 90.209 C 198.460 89.384,197.533 89.871,195.809 92.104 C 194.078 94.347,193.195 94.961,192.353 94.510 C 191.329 93.962,191.316 93.716,191.194 73.167 L 191.083 54.583 190.723 53.803 C 190.125 52.509,188.658 52.090,187.487 52.879 " stroke="none" fill="#54f020" fill-rule="evenodd"></path></g></svg>